:SAMPLES-PER-SECOND 30
:FULLY-SPECIFIED
:DEGREES
170
root  -77.9046 41.5881 -3.12768 -163.801 -86.5032 158.321
RightUpLeg  1.63873 -9.57809 -10.9761
RightLeg  2.01262 0.854984 1.7679
RightFoot  4.25163 -0.481263 3.72624
RightToes  1.16414e-010 0 -3.6325e-017
Spine  6.83744 -0.103839 -0.211609
Spine1  5.3816 -0.418578 1.24002
HEad  -20.4822 -18.8553 11.7415
LeftShoulder1  1.71866 -6.68385 -9.51679
LeftArm  -31.0825 21.6426 -3.45314
LeftForeArm  6.08179 -16.298 -1.0218
LeftHand  -0.244104 0.0205437 5.32207
RightShoulder  1.1308 1.841 14.2551
RightArm  -19.5326 -11.7273 4.80835
RightForeArm  -4.84062 7.7801 3.6302
RightHand  -5.0518 14.8223 -28.7444
LeftUpLeg  3.40182 4.01595 -1.21232
LeftLeg  2.18672 17.1869 -4.33703
LeftFoot  -1.292 -0.44399 5.13424
LeftToes  -6.45774e-011 3.08606e-011 -5.1752e-012
171
root  -78.0407 41.5879 -3.29035 -166.851 -85.9253 161
RightUpLeg  1.86587 -9.45549 -10.7791
RightLeg  2.5187 1.3042 1.73677
RightFoot  3.72255 -0.467958 3.73033
RightToes  1.16414e-010 0 -3.6325e-017
Spine  6.97045 0.0920387 -0.324833
Spine1  5.50168 -0.259704 1.4111
HEad  -20.7352 -18.4204 11.1687
LeftShoulder1  1.28069 -5.73425 -6.13474
LeftArm  -28.7084 21.1298 -0.79756
LeftForeArm  15.5907 -16.3603 -0.957899
LeftHand  -0.244104 0.0205437 5.32207
RightShoulder  0.780524 0.843309 10.7658
RightArm  -19.9122 -10.3644 2.98516
RightForeArm  -4.2378 8.53205 3.71225
RightHand  -5.36178 15.8084 -29.0683
LeftUpLeg  3.89319 4.2549 -0.874334
LeftLeg  2.63228 17.4714 -4.18615
LeftFoot  -1.69804 -0.382869 4.65889
LeftToes  -6.45774e-011 3.08606e-011 -5.1752e-012
172
root  -78.1612 41.5905 -3.45473 -167.722 -85.8333 161.452
RightUpLeg  2.37576 -9.52688 -10.7318
RightLeg  2.78774 1.6499 1.89368
RightFoot  3.43905 -0.456801 3.70103
RightToes  1.16414e-010 0 -3.6325e-017
Spine  7.18802 0.113798 -0.104074
Spine1  5.42917 -0.0630519 0.756756
HEad  -20.9248 -18.1347 11.0571
LeftShoulder1  0.829587 -4.58035 -1.99709
LeftArm  -28.5945 20.6582 0.239608
LeftForeArm  23.3816 -17.6173 -1.31496
LeftHand  -0.244104 0.0205437 5.32207
RightShoulder  0.574382 0.145853 8.30642
RightArm  -20.7357 -9.5656 1.56925
RightForeArm  -8.38025 9.23242 3.93577
RightHand  -5.72847 16.1031 -30.5184
LeftUpLeg  4.42034 4.40236 -0.577
LeftLeg  2.98531 17.3281 -4.00468
LeftFoot  -1.9219 -0.346627 4.34716
LeftToes  -6.45774e-011 3.08606e-011 -5.1752e-012
173
root  -78.276 41.601 -3.62263 -166.866 -86.0429 160.302
RightUpLeg  2.78947 -9.57367 -10.6615
RightLeg  3.18216 1.60128 1.99774
RightFoot  3.08109 -0.410292 3.40669
RightToes  1.16414e-010 0 -3.6325e-017
Spine  7.24619 0.0220853 0.0953966
Spine1  5.17067 0.0643362 -0.11118
HEad  -20.4459 -17.9534 10.7887
LeftShoulder1  0.455786 -3.16616 1.75395
LeftArm  -28.9687 19.8667 0.373219
LeftForeArm  27.1787 -19.6551 -2.18727
LeftHand  -0.244104 0.0205437 5.32207
RightShoulder  0.450018 -0.401873 6.87065
RightArm  -20.5051 -8.31974 0.325028
RightForeArm  -15.7175 9.00099 4.52827
RightHand  -6.4046 16.8607 -32.827
LeftUpLeg  4.90825 4.41595 -0.376735
LeftLeg  3.03516 17.0219 -3.8335
LeftFoot  -1.98528 -0.324961 4.11644
LeftToes  -6.45774e-011 3.08606e-011 -5.1752e-012
174
root  -78.3836 41.611 -3.80425 -163.663 -86.4485 157.121
RightUpLeg  2.86541 -9.53105 -10.5144
RightLeg  3.63541 1.07487 2.00121
RightFoot  2.55202 -0.361272 3.10725
RightToes  1.16414e-010 0 -3.6325e-017
Spine  6.93071 0.0677678 0.0226811
Spine1  4.57397 0.156593 -0.312192
HEad  -19.2083 -17.9745 9.70447
LeftShoulder1  0.364274 -2.74996 2.96721
LeftArm  -31.8634 18.1259 0.442118
LeftForeArm  29.7739 -20.8577 -2.49502
LeftHand  -0.244104 0.0205437 5.32207
RightShoulder  0.343753 -0.844699 5.13661
RightArm  -20.2901 -7.76933 -0.446362
RightForeArm  -17.2711 8.8727 4.71015
RightHand  -6.55366 17.2394 -33.0009
LeftUpLeg  5.06728 4.37643 -0.222749
LeftLeg  2.99449 16.5707 -3.70998
LeftFoot  -2.04806 -0.296882 3.8036
LeftToes  -6.45774e-011 3.08606e-011 -5.1752e-012
